<mxfile host="app.diagrams.net" modified="2023-01-29T06:17:21.136Z" agent="5.0 (Macintosh; Intel Mac OS X 10_15_7) AppleWebKit/537.36 (KHTML, like Gecko) Chrome/109.0.0.0 Safari/537.36" etag="xVIjfDt0Rh-E2CkRvltL" version="20.8.13" type="github">
  <diagram name="Page-1" id="5f0bae14-7c28-e335-631c-24af17079c00">
    <mxGraphModel dx="1060" dy="583" grid="1" gridSize="10" guides="1" tooltips="1" connect="1" arrows="1" fold="1" page="1" pageScale="1" pageWidth="1100" pageHeight="850" background="none" math="0" shadow="0">
      <root>
        <mxCell id="0" />
        <mxCell id="1" parent="0" />
        <mxCell id="OBAwb-wkOAOhV47YBoic-12" value="&lt;p style=&quot;margin:0px;margin-top:6px;text-align:center;&quot;&gt;&lt;b&gt;App&lt;/b&gt;&lt;/p&gt;&lt;hr&gt;&lt;p style=&quot;margin:0px;margin-left:8px;&quot;&gt;+ Attribute1: Type&lt;br&gt;+ Attribute2: Type&lt;/p&gt;" style="align=left;overflow=fill;html=1;dropTarget=0;" vertex="1" parent="1">
          <mxGeometry x="400" y="330" width="180" height="90" as="geometry" />
        </mxCell>
        <mxCell id="OBAwb-wkOAOhV47YBoic-13" value="" style="shape=component;jettyWidth=8;jettyHeight=4;" vertex="1" parent="OBAwb-wkOAOhV47YBoic-12">
          <mxGeometry x="1" width="20" height="20" relative="1" as="geometry">
            <mxPoint x="-24" y="4" as="offset" />
          </mxGeometry>
        </mxCell>
        <mxCell id="OBAwb-wkOAOhV47YBoic-16" value="&lt;p style=&quot;margin:0px;margin-top:6px;text-align:center;&quot;&gt;&lt;b&gt;TaskList&lt;/b&gt;&lt;/p&gt;&lt;hr&gt;&lt;p style=&quot;margin:0px;margin-left:8px;&quot;&gt;+ Attribute1: Type&lt;br&gt;+ Attribute2: Type&lt;/p&gt;" style="align=left;overflow=fill;html=1;dropTarget=0;" vertex="1" parent="1">
          <mxGeometry x="390" y="450" width="180" height="90" as="geometry" />
        </mxCell>
        <mxCell id="OBAwb-wkOAOhV47YBoic-17" value="" style="shape=component;jettyWidth=8;jettyHeight=4;" vertex="1" parent="OBAwb-wkOAOhV47YBoic-16">
          <mxGeometry x="1" width="20" height="20" relative="1" as="geometry">
            <mxPoint x="-24" y="4" as="offset" />
          </mxGeometry>
        </mxCell>
        <mxCell id="OBAwb-wkOAOhV47YBoic-18" value="This file would contain the TaskList component, which would display the list of tasks. It would receive the tasks as props and map over them to display individual Task components." style="text;whiteSpace=wrap;html=1;" vertex="1" parent="1">
          <mxGeometry x="600" y="450" width="560" height="80" as="geometry" />
        </mxCell>
        <mxCell id="OBAwb-wkOAOhV47YBoic-21" value="This file would contain the top-level component of the app. It would maintain the state of the tasks and pass it down to the child components as props." style="text;whiteSpace=wrap;html=1;" vertex="1" parent="1">
          <mxGeometry x="600" y="320" width="560" height="80" as="geometry" />
        </mxCell>
        <mxCell id="OBAwb-wkOAOhV47YBoic-22" value="&lt;p style=&quot;margin:0px;margin-top:6px;text-align:center;&quot;&gt;&lt;b&gt;Task&lt;/b&gt;&lt;/p&gt;&lt;hr&gt;&lt;p style=&quot;margin:0px;margin-left:8px;&quot;&gt;+ Attribute1: Type&lt;br&gt;+ Attribute2: Type&lt;/p&gt;" style="align=left;overflow=fill;html=1;dropTarget=0;" vertex="1" parent="1">
          <mxGeometry x="380" y="570" width="180" height="90" as="geometry" />
        </mxCell>
        <mxCell id="OBAwb-wkOAOhV47YBoic-23" value="" style="shape=component;jettyWidth=8;jettyHeight=4;" vertex="1" parent="OBAwb-wkOAOhV47YBoic-22">
          <mxGeometry x="1" width="20" height="20" relative="1" as="geometry">
            <mxPoint x="-24" y="4" as="offset" />
          </mxGeometry>
        </mxCell>
        <mxCell id="OBAwb-wkOAOhV47YBoic-24" value="This file would contain the Task component, which would display an individual task. It would receive the task&#39;s data as props and render it in a list item." style="text;whiteSpace=wrap;html=1;" vertex="1" parent="1">
          <mxGeometry x="590" y="610" width="560" height="80" as="geometry" />
        </mxCell>
        <mxCell id="OBAwb-wkOAOhV47YBoic-25" value="&lt;p style=&quot;margin:0px;margin-top:6px;text-align:center;&quot;&gt;&lt;b&gt;TaskForm&lt;/b&gt;&lt;/p&gt;&lt;hr&gt;&lt;p style=&quot;margin:0px;margin-left:8px;&quot;&gt;+ Attribute1: Type&lt;br&gt;+ Attribute2: Type&lt;/p&gt;" style="align=left;overflow=fill;html=1;dropTarget=0;" vertex="1" parent="1">
          <mxGeometry x="370" y="710" width="180" height="90" as="geometry" />
        </mxCell>
        <mxCell id="OBAwb-wkOAOhV47YBoic-26" value="" style="shape=component;jettyWidth=8;jettyHeight=4;" vertex="1" parent="OBAwb-wkOAOhV47YBoic-25">
          <mxGeometry x="1" width="20" height="20" relative="1" as="geometry">
            <mxPoint x="-24" y="4" as="offset" />
          </mxGeometry>
        </mxCell>
        <mxCell id="OBAwb-wkOAOhV47YBoic-27" value="This file would contain the TaskForm component, which would display a form for creating and editing tasks. It would have a text input for the task description, a button for submitting the form and a button to cancel. It would call a callback function passed down as props to update the state in the parent App component when the form is submitted and also receive the task data if the form is being used to edit a task." style="text;whiteSpace=wrap;html=1;" vertex="1" parent="1">
          <mxGeometry x="600" y="730" width="560" height="80" as="geometry" />
        </mxCell>
      </root>
    </mxGraphModel>
  </diagram>
</mxfile>
